<?xml version="1.0" standalone="no"?>
<!DOCTYPE svg PUBLIC "-//W3C//DTD SVG 20010904//EN"
 "http://www.w3.org/TR/2001/REC-SVG-20010904/DTD/svg10.dtd">
<svg version="1.0" xmlns="http://www.w3.org/2000/svg"
 width="348.000000pt" height="119.000000pt" viewBox="0 0 348.000000 119.000000"
 preserveAspectRatio="xMidYMid meet">

<g transform="translate(0.000000,119.000000) scale(0.100000,-0.100000)"
fill="#000000" stroke="none">
<path d="M345 1073 c-118 -31 -221 -124 -266 -240 -28 -76 -31 -197 -6 -269
37 -106 130 -202 234 -241 117 -43 213 -38 324 17 48 24 65 28 76 19 7 -7 11
-19 8 -28 -7 -24 213 -241 244 -241 49 0 90 38 91 84 0 24 -20 50 -112 143
-78 78 -117 111 -129 108 -9 -3 -22 1 -28 9 -9 11 -6 26 19 73 119 229 -8 511
-259 569 -71 17 -121 16 -196 -3z m219 -33 c108 -37 194 -120 233 -222 9 -26
16 -77 16 -128 1 -75 -2 -93 -29 -150 -55 -115 -140 -182 -261 -207 -62 -13
-85 -13 -136 -3 -159 31 -273 145 -299 302 -25 146 36 286 159 365 32 20 75
42 98 49 61 19 154 17 219 -6z m209 -634 c3 -8 -2 -21 -12 -30 -16 -15 -19
-15 -31 -1 -10 12 -10 18 0 30 16 19 36 19 43 1z m149 -113 c101 -100 114
-126 82 -157 -31 -32 -57 -19 -159 84 l-99 100 34 35 c19 19 36 35 39 35 3 0
50 -44 103 -97z"/>
<path d="M370 981 c-171 -53 -261 -231 -200 -396 27 -71 89 -137 159 -168 68
-30 180 -29 245 2 61 30 123 92 149 151 33 71 30 179 -6 252 -34 69 -91 121
-164 148 -54 20 -136 25 -183 11z m182 -40 c139 -61 201 -203 148 -344 -41
-110 -150 -183 -263 -175 -102 6 -180 57 -231 148 -29 52 -29 190 1 245 66
123 221 180 345 126z"/>
<path d="M459 843 c0 -5 -2 -17 -4 -28 -2 -11 -6 -38 -10 -61 -3 -22 -8 -52
-10 -65 -17 -99 -21 -140 -13 -145 5 -3 12 -3 15 0 8 7 50 281 45 295 -4 12
-22 15 -23 4z"/>
<path d="M305 745 l-60 -55 31 -27 c70 -64 98 -83 108 -73 9 9 4 15 -69 77
l-29 25 52 45 c29 25 52 49 52 54 0 21 -29 5 -85 -46z"/>
<path d="M510 785 c0 -8 3 -15 8 -15 4 -1 26 -18 50 -40 l44 -39 -38 -33 c-20
-18 -44 -38 -52 -44 -8 -6 -12 -16 -8 -23 5 -7 27 4 67 36 33 26 63 51 66 56
7 11 -106 116 -124 117 -7 0 -13 -7 -13 -15z"/>
<path d="M1184 767 c15 -11 17 -32 18 -156 0 -129 -2 -146 -18 -158 -15 -11
-10 -13 46 -13 63 0 63 0 45 20 -22 24 -21 27 66 150 l59 84 0 -109 c0 -87 -3
-112 -17 -127 -15 -17 -13 -18 48 -18 55 1 62 2 47 14 -16 11 -18 32 -18 156
0 124 2 145 18 156 15 12 8 13 -47 14 -63 0 -64 0 -46 -20 22 -24 19 -31 -58
-142 l-62 -90 -3 107 c-2 90 0 111 14 126 17 18 15 19 -46 19 -54 0 -61 -2
-46 -13z"/>
<path d="M2975 771 c-60 -26 -74 -102 -23 -130 22 -13 30 -13 55 -1 l28 14
-25 4 c-34 5 -50 20 -50 47 0 55 83 75 119 29 40 -51 20 -101 -64 -158 -47
-33 -105 -104 -105 -129 0 -4 54 -7 120 -7 l120 0 0 31 c0 26 -3 29 -14 20 -9
-8 -46 -11 -102 -9 l-89 3 35 33 c19 18 58 45 85 60 87 47 105 127 38 176 -29
21 -98 30 -128 17z"/>
<path d="M3260 755 c0 -38 -29 -119 -60 -168 -16 -26 -30 -50 -30 -52 0 -3 34
-5 75 -5 75 0 75 0 75 -27 0 -14 -7 -35 -17 -45 -15 -17 -14 -18 43 -18 51 1
57 2 42 14 -22 16 -25 76 -4 76 8 0 18 -5 22 -11 4 -8 9 -7 15 2 15 23 10 29
-21 29 l-30 0 0 71 0 71 -22 -14 c-19 -12 -24 -26 -26 -72 l-3 -56 -59 0 -60
0 34 48 c35 49 86 144 86 161 0 5 -13 11 -30 13 -25 4 -30 1 -30 -17z"/>
<path d="M2435 750 c-3 -5 6 -17 20 -26 31 -20 78 -10 83 19 4 21 -24 23 -32
2 -3 -8 -12 -15 -21 -15 -9 0 -18 7 -21 15 -7 17 -20 20 -29 5z"/>
<path d="M1558 698 c19 -19 15 -105 -5 -117 -17 -10 -17 -10 0 -11 14 0 17 -9
17 -53 0 -29 -5 -58 -12 -65 -9 -9 -1 -12 37 -12 38 0 46 3 37 12 -7 7 -12 35
-12 63 l0 50 50 0 50 0 0 -52 c0 -39 -4 -55 -17 -62 -14 -8 -5 -10 37 -10 48
0 53 1 38 13 -15 11 -18 30 -18 124 0 95 2 112 18 121 13 8 6 10 -32 11 -39 0
-47 -3 -38 -12 7 -7 12 -36 12 -65 l0 -53 -34 0 c-58 0 -66 7 -66 59 0 26 5
52 12 59 9 9 1 12 -37 12 -38 0 -46 -3 -37 -12z"/>
<path d="M1872 690 c-63 -39 -79 -143 -31 -204 39 -50 139 -58 191 -16 21 17
22 20 7 35 -16 16 -18 15 -31 -11 -18 -40 -74 -45 -114 -11 -23 20 -28 34 -32
84 -5 75 14 118 57 128 31 7 70 -8 84 -31 11 -19 25 -17 29 4 3 13 -7 20 -42
29 -63 17 -80 16 -118 -7z"/>
<path d="M2179 696 c15 -18 -17 -107 -38 -103 -7 1 -16 -4 -18 -10 -3 -7 0
-13 6 -13 27 0 -4 -81 -43 -112 -21 -17 -20 -18 27 -18 43 0 46 1 36 18 -13
21 -4 92 11 92 5 0 17 -11 26 -25 l17 -26 22 21 22 21 16 -38 c10 -26 12 -42
5 -50 -8 -10 -1 -13 31 -13 41 0 41 0 27 23 -9 12 -22 41 -30 64 -13 36 -13
42 0 47 8 3 14 13 14 23 0 13 -3 14 -12 5 -7 -7 -15 -12 -19 -12 -12 0 -40 82
-34 101 6 17 1 19 -36 19 -34 0 -39 -3 -30 -14z m47 -154 c-15 -15 -18 -15
-40 8 l-24 25 20 45 20 45 21 -53 c19 -50 19 -54 3 -70z"/>
<path d="M2373 699 c15 -9 17 -26 17 -124 0 -98 -2 -115 -17 -124 -14 -8 -5
-10 37 -10 42 0 51 2 38 10 -10 5 -18 14 -18 18 0 5 24 44 53 86 l52 77 3 -82
c2 -52 -1 -87 -9 -96 -10 -12 -3 -14 37 -14 37 0 45 3 36 12 -17 17 -17 229 0
246 9 9 1 12 -37 12 -38 0 -46 -3 -37 -12 20 -20 14 -37 -40 -116 l-53 -76 -3
89 c-2 76 0 92 14 102 15 11 10 13 -37 13 -41 -1 -50 -3 -36 -11z"/>
<path d="M2673 692 c23 -26 24 -177 1 -210 -8 -12 -21 -22 -29 -22 -11 0 -11
-6 -2 -30 l11 -30 21 20 c28 26 149 29 176 4 16 -14 18 -14 28 4 9 17 8 22 -9
27 -18 6 -20 15 -20 119 0 74 4 116 12 124 9 9 -12 12 -97 12 -104 0 -107 -1
-92 -18z m135 -114 l-3 -113 -51 -3 -52 -3 4 108 c2 59 3 111 4 116 0 4 23 7
50 7 l51 0 -3 -112z"/>
</g>
</svg>
